<?xml version="1.0" encoding="utf-8" standalone="no"?>
<!DOCTYPE svg PUBLIC "-//W3C//DTD SVG 1.1//EN"
  "http://www.w3.org/Graphics/SVG/1.1/DTD/svg11.dtd">
<!-- Created with matplotlib (https://matplotlib.org/) -->
<svg height="360pt" version="1.1" viewBox="0 0 720 360" width="720pt" xmlns="http://www.w3.org/2000/svg" xmlns:xlink="http://www.w3.org/1999/xlink">
 <metadata>
  <rdf:RDF xmlns:cc="http://creativecommons.org/ns#" xmlns:dc="http://purl.org/dc/elements/1.1/" xmlns:rdf="http://www.w3.org/1999/02/22-rdf-syntax-ns#">
   <cc:Work>
    <dc:type rdf:resource="http://purl.org/dc/dcmitype/StillImage"/>
    <dc:date>2022-04-30T21:30:42.423347</dc:date>
    <dc:format>image/svg+xml</dc:format>
    <dc:creator>
     <cc:Agent>
      <dc:title>Matplotlib v3.3.4, https://matplotlib.org/</dc:title>
     </cc:Agent>
    </dc:creator>
   </cc:Work>
  </rdf:RDF>
 </metadata>
 <defs>
  <style type="text/css">*{stroke-linecap:butt;stroke-linejoin:round;}</style>
 </defs>
 <g id="figure_1">
  <g id="patch_1">
   <path d="M 0 360 
L 720 360 
L 720 0 
L 0 0 
z
" style="fill:none;"/>
  </g>
  <g id="axes_1">
   <g id="patch_2">
    <path d="M 90 315 
L 648 315 
L 648 43.2 
L 90 43.2 
z
" style="fill:#ffffff;"/>
   </g>
   <g id="matplotlib.axis_1">
    <g id="xtick_1">
     <g id="line2d_1">
      <defs>
       <path d="M 0 0 
L 0 -7 
" id="m484da87f1b" style="stroke:#000000;stroke-width:2;"/>
      </defs>
      <g>
       <use style="stroke:#000000;stroke-width:2;" x="115.363636" xlink:href="#m484da87f1b" y="315"/>
      </g>
     </g>
     <g id="line2d_2">
      <defs>
       <path d="M 0 0 
L 0 7 
" id="mbf1b014d46" style="stroke:#000000;stroke-width:2;"/>
      </defs>
      <g>
       <use style="stroke:#000000;stroke-width:2;" x="115.363636" xlink:href="#mbf1b014d46" y="43.2"/>
      </g>
     </g>
     <g id="text_1">
      <!-- 0 -->
      <g transform="translate(109.001136 333.696875)scale(0.2 -0.2)">
       <defs>
        <path d="M 31.78125 66.40625 
Q 24.171875 66.40625 20.328125 58.90625 
Q 16.5 51.421875 16.5 36.375 
Q 16.5 21.390625 20.328125 13.890625 
Q 24.171875 6.390625 31.78125 6.390625 
Q 39.453125 6.390625 43.28125 13.890625 
Q 47.125 21.390625 47.125 36.375 
Q 47.125 51.421875 43.28125 58.90625 
Q 39.453125 66.40625 31.78125 66.40625 
z
M 31.78125 74.21875 
Q 44.046875 74.21875 50.515625 64.515625 
Q 56.984375 54.828125 56.984375 36.375 
Q 56.984375 17.96875 50.515625 8.265625 
Q 44.046875 -1.421875 31.78125 -1.421875 
Q 19.53125 -1.421875 13.0625 8.265625 
Q 6.59375 17.96875 6.59375 36.375 
Q 6.59375 54.828125 13.0625 64.515625 
Q 19.53125 74.21875 31.78125 74.21875 
z
" id="DejaVuSans-48"/>
       </defs>
       <use xlink:href="#DejaVuSans-48"/>
      </g>
     </g>
    </g>
    <g id="xtick_2">
     <g id="line2d_3">
      <g>
       <use style="stroke:#000000;stroke-width:2;" x="232.516691" xlink:href="#m484da87f1b" y="315"/>
      </g>
     </g>
     <g id="line2d_4">
      <g>
       <use style="stroke:#000000;stroke-width:2;" x="232.516691" xlink:href="#mbf1b014d46" y="43.2"/>
      </g>
     </g>
     <g id="text_2">
      <!-- 100 -->
      <g transform="translate(213.429191 333.696875)scale(0.2 -0.2)">
       <defs>
        <path d="M 12.40625 8.296875 
L 28.515625 8.296875 
L 28.515625 63.921875 
L 10.984375 60.40625 
L 10.984375 69.390625 
L 28.421875 72.90625 
L 38.28125 72.90625 
L 38.28125 8.296875 
L 54.390625 8.296875 
L 54.390625 0 
L 12.40625 0 
z
" id="DejaVuSans-49"/>
       </defs>
       <use xlink:href="#DejaVuSans-49"/>
       <use x="63.623047" xlink:href="#DejaVuSans-48"/>
       <use x="127.246094" xlink:href="#DejaVuSans-48"/>
      </g>
     </g>
    </g>
    <g id="xtick_3">
     <g id="line2d_5">
      <g>
       <use style="stroke:#000000;stroke-width:2;" x="349.669746" xlink:href="#m484da87f1b" y="315"/>
      </g>
     </g>
     <g id="line2d_6">
      <g>
       <use style="stroke:#000000;stroke-width:2;" x="349.669746" xlink:href="#mbf1b014d46" y="43.2"/>
      </g>
     </g>
     <g id="text_3">
      <!-- 200 -->
      <g transform="translate(330.582246 333.696875)scale(0.2 -0.2)">
       <defs>
        <path d="M 19.1875 8.296875 
L 53.609375 8.296875 
L 53.609375 0 
L 7.328125 0 
L 7.328125 8.296875 
Q 12.9375 14.109375 22.625 23.890625 
Q 32.328125 33.6875 34.8125 36.53125 
Q 39.546875 41.84375 41.421875 45.53125 
Q 43.3125 49.21875 43.3125 52.78125 
Q 43.3125 58.59375 39.234375 62.25 
Q 35.15625 65.921875 28.609375 65.921875 
Q 23.96875 65.921875 18.8125 64.3125 
Q 13.671875 62.703125 7.8125 59.421875 
L 7.8125 69.390625 
Q 13.765625 71.78125 18.9375 73 
Q 24.125 74.21875 28.421875 74.21875 
Q 39.75 74.21875 46.484375 68.546875 
Q 53.21875 62.890625 53.21875 53.421875 
Q 53.21875 48.921875 51.53125 44.890625 
Q 49.859375 40.875 45.40625 35.40625 
Q 44.1875 33.984375 37.640625 27.21875 
Q 31.109375 20.453125 19.1875 8.296875 
z
" id="DejaVuSans-50"/>
       </defs>
       <use xlink:href="#DejaVuSans-50"/>
       <use x="63.623047" xlink:href="#DejaVuSans-48"/>
       <use x="127.246094" xlink:href="#DejaVuSans-48"/>
      </g>
     </g>
    </g>
    <g id="xtick_4">
     <g id="line2d_7">
      <g>
       <use style="stroke:#000000;stroke-width:2;" x="466.822801" xlink:href="#m484da87f1b" y="315"/>
      </g>
     </g>
     <g id="line2d_8">
      <g>
       <use style="stroke:#000000;stroke-width:2;" x="466.822801" xlink:href="#mbf1b014d46" y="43.2"/>
      </g>
     </g>
     <g id="text_4">
      <!-- 300 -->
      <g transform="translate(447.735301 333.696875)scale(0.2 -0.2)">
       <defs>
        <path d="M 40.578125 39.3125 
Q 47.65625 37.796875 51.625 33 
Q 55.609375 28.21875 55.609375 21.1875 
Q 55.609375 10.40625 48.1875 4.484375 
Q 40.765625 -1.421875 27.09375 -1.421875 
Q 22.515625 -1.421875 17.65625 -0.515625 
Q 12.796875 0.390625 7.625 2.203125 
L 7.625 11.71875 
Q 11.71875 9.328125 16.59375 8.109375 
Q 21.484375 6.890625 26.8125 6.890625 
Q 36.078125 6.890625 40.9375 10.546875 
Q 45.796875 14.203125 45.796875 21.1875 
Q 45.796875 27.640625 41.28125 31.265625 
Q 36.765625 34.90625 28.71875 34.90625 
L 20.21875 34.90625 
L 20.21875 43.015625 
L 29.109375 43.015625 
Q 36.375 43.015625 40.234375 45.921875 
Q 44.09375 48.828125 44.09375 54.296875 
Q 44.09375 59.90625 40.109375 62.90625 
Q 36.140625 65.921875 28.71875 65.921875 
Q 24.65625 65.921875 20.015625 65.03125 
Q 15.375 64.15625 9.8125 62.3125 
L 9.8125 71.09375 
Q 15.4375 72.65625 20.34375 73.4375 
Q 25.25 74.21875 29.59375 74.21875 
Q 40.828125 74.21875 47.359375 69.109375 
Q 53.90625 64.015625 53.90625 55.328125 
Q 53.90625 49.265625 50.4375 45.09375 
Q 46.96875 40.921875 40.578125 39.3125 
z
" id="DejaVuSans-51"/>
       </defs>
       <use xlink:href="#DejaVuSans-51"/>
       <use x="63.623047" xlink:href="#DejaVuSans-48"/>
       <use x="127.246094" xlink:href="#DejaVuSans-48"/>
      </g>
     </g>
    </g>
    <g id="xtick_5">
     <g id="line2d_9">
      <g>
       <use style="stroke:#000000;stroke-width:2;" x="583.975856" xlink:href="#m484da87f1b" y="315"/>
      </g>
     </g>
     <g id="line2d_10">
      <g>
       <use style="stroke:#000000;stroke-width:2;" x="583.975856" xlink:href="#mbf1b014d46" y="43.2"/>
      </g>
     </g>
     <g id="text_5">
      <!-- 400 -->
      <g transform="translate(564.888356 333.696875)scale(0.2 -0.2)">
       <defs>
        <path d="M 37.796875 64.3125 
L 12.890625 25.390625 
L 37.796875 25.390625 
z
M 35.203125 72.90625 
L 47.609375 72.90625 
L 47.609375 25.390625 
L 58.015625 25.390625 
L 58.015625 17.1875 
L 47.609375 17.1875 
L 47.609375 0 
L 37.796875 0 
L 37.796875 17.1875 
L 4.890625 17.1875 
L 4.890625 26.703125 
z
" id="DejaVuSans-52"/>
       </defs>
       <use xlink:href="#DejaVuSans-52"/>
       <use x="63.623047" xlink:href="#DejaVuSans-48"/>
       <use x="127.246094" xlink:href="#DejaVuSans-48"/>
      </g>
     </g>
    </g>
   </g>
   <g id="matplotlib.axis_2">
    <g id="ytick_1">
     <g id="line2d_11">
      <defs>
       <path d="M 0 0 
L 7 0 
" id="ma80dca74a7" style="stroke:#000000;stroke-width:2;"/>
      </defs>
      <g>
       <use style="stroke:#000000;stroke-width:2;" x="90" xlink:href="#ma80dca74a7" y="271.530303"/>
      </g>
     </g>
     <g id="line2d_12">
      <defs>
       <path d="M 0 0 
L -7 0 
" id="m265b74ad56" style="stroke:#000000;stroke-width:2;"/>
      </defs>
      <g>
       <use style="stroke:#000000;stroke-width:2;" x="648" xlink:href="#m265b74ad56" y="271.530303"/>
      </g>
     </g>
     <g id="text_6">
      <!-- 0.2 -->
      <g transform="translate(54.69375 279.128741)scale(0.2 -0.2)">
       <defs>
        <path d="M 10.6875 12.40625 
L 21 12.40625 
L 21 0 
L 10.6875 0 
z
" id="DejaVuSans-46"/>
       </defs>
       <use xlink:href="#DejaVuSans-48"/>
       <use x="63.623047" xlink:href="#DejaVuSans-46"/>
       <use x="95.410156" xlink:href="#DejaVuSans-50"/>
      </g>
     </g>
    </g>
    <g id="ytick_2">
     <g id="line2d_13">
      <g>
       <use style="stroke:#000000;stroke-width:2;" x="90" xlink:href="#ma80dca74a7" y="217.536364"/>
      </g>
     </g>
     <g id="line2d_14">
      <g>
       <use style="stroke:#000000;stroke-width:2;" x="648" xlink:href="#m265b74ad56" y="217.536364"/>
      </g>
     </g>
     <g id="text_7">
      <!-- 0.4 -->
      <g transform="translate(54.69375 225.134801)scale(0.2 -0.2)">
       <use xlink:href="#DejaVuSans-48"/>
       <use x="63.623047" xlink:href="#DejaVuSans-46"/>
       <use x="95.410156" xlink:href="#DejaVuSans-52"/>
      </g>
     </g>
    </g>
    <g id="ytick_3">
     <g id="line2d_15">
      <g>
       <use style="stroke:#000000;stroke-width:2;" x="90" xlink:href="#ma80dca74a7" y="163.542424"/>
      </g>
     </g>
     <g id="line2d_16">
      <g>
       <use style="stroke:#000000;stroke-width:2;" x="648" xlink:href="#m265b74ad56" y="163.542424"/>
      </g>
     </g>
     <g id="text_8">
      <!-- 0.6 -->
      <g transform="translate(54.69375 171.140862)scale(0.2 -0.2)">
       <defs>
        <path d="M 33.015625 40.375 
Q 26.375 40.375 22.484375 35.828125 
Q 18.609375 31.296875 18.609375 23.390625 
Q 18.609375 15.53125 22.484375 10.953125 
Q 26.375 6.390625 33.015625 6.390625 
Q 39.65625 6.390625 43.53125 10.953125 
Q 47.40625 15.53125 47.40625 23.390625 
Q 47.40625 31.296875 43.53125 35.828125 
Q 39.65625 40.375 33.015625 40.375 
z
M 52.59375 71.296875 
L 52.59375 62.3125 
Q 48.875 64.0625 45.09375 64.984375 
Q 41.3125 65.921875 37.59375 65.921875 
Q 27.828125 65.921875 22.671875 59.328125 
Q 17.53125 52.734375 16.796875 39.40625 
Q 19.671875 43.65625 24.015625 45.921875 
Q 28.375 48.1875 33.59375 48.1875 
Q 44.578125 48.1875 50.953125 41.515625 
Q 57.328125 34.859375 57.328125 23.390625 
Q 57.328125 12.15625 50.6875 5.359375 
Q 44.046875 -1.421875 33.015625 -1.421875 
Q 20.359375 -1.421875 13.671875 8.265625 
Q 6.984375 17.96875 6.984375 36.375 
Q 6.984375 53.65625 15.1875 63.9375 
Q 23.390625 74.21875 37.203125 74.21875 
Q 40.921875 74.21875 44.703125 73.484375 
Q 48.484375 72.75 52.59375 71.296875 
z
" id="DejaVuSans-54"/>
       </defs>
       <use xlink:href="#DejaVuSans-48"/>
       <use x="63.623047" xlink:href="#DejaVuSans-46"/>
       <use x="95.410156" xlink:href="#DejaVuSans-54"/>
      </g>
     </g>
    </g>
    <g id="ytick_4">
     <g id="line2d_17">
      <g>
       <use style="stroke:#000000;stroke-width:2;" x="90" xlink:href="#ma80dca74a7" y="109.548485"/>
      </g>
     </g>
     <g id="line2d_18">
      <g>
       <use style="stroke:#000000;stroke-width:2;" x="648" xlink:href="#m265b74ad56" y="109.548485"/>
      </g>
     </g>
     <g id="text_9">
      <!-- 0.8 -->
      <g transform="translate(54.69375 117.146922)scale(0.2 -0.2)">
       <defs>
        <path d="M 31.78125 34.625 
Q 24.75 34.625 20.71875 30.859375 
Q 16.703125 27.09375 16.703125 20.515625 
Q 16.703125 13.921875 20.71875 10.15625 
Q 24.75 6.390625 31.78125 6.390625 
Q 38.8125 6.390625 42.859375 10.171875 
Q 46.921875 13.96875 46.921875 20.515625 
Q 46.921875 27.09375 42.890625 30.859375 
Q 38.875 34.625 31.78125 34.625 
z
M 21.921875 38.8125 
Q 15.578125 40.375 12.03125 44.71875 
Q 8.5 49.078125 8.5 55.328125 
Q 8.5 64.0625 14.71875 69.140625 
Q 20.953125 74.21875 31.78125 74.21875 
Q 42.671875 74.21875 48.875 69.140625 
Q 55.078125 64.0625 55.078125 55.328125 
Q 55.078125 49.078125 51.53125 44.71875 
Q 48 40.375 41.703125 38.8125 
Q 48.828125 37.15625 52.796875 32.3125 
Q 56.78125 27.484375 56.78125 20.515625 
Q 56.78125 9.90625 50.3125 4.234375 
Q 43.84375 -1.421875 31.78125 -1.421875 
Q 19.734375 -1.421875 13.25 4.234375 
Q 6.78125 9.90625 6.78125 20.515625 
Q 6.78125 27.484375 10.78125 32.3125 
Q 14.796875 37.15625 21.921875 38.8125 
z
M 18.3125 54.390625 
Q 18.3125 48.734375 21.84375 45.5625 
Q 25.390625 42.390625 31.78125 42.390625 
Q 38.140625 42.390625 41.71875 45.5625 
Q 45.3125 48.734375 45.3125 54.390625 
Q 45.3125 60.0625 41.71875 63.234375 
Q 38.140625 66.40625 31.78125 66.40625 
Q 25.390625 66.40625 21.84375 63.234375 
Q 18.3125 60.0625 18.3125 54.390625 
z
" id="DejaVuSans-56"/>
       </defs>
       <use xlink:href="#DejaVuSans-48"/>
       <use x="63.623047" xlink:href="#DejaVuSans-46"/>
       <use x="95.410156" xlink:href="#DejaVuSans-56"/>
      </g>
     </g>
    </g>
    <g id="ytick_5">
     <g id="line2d_19">
      <g>
       <use style="stroke:#000000;stroke-width:2;" x="90" xlink:href="#ma80dca74a7" y="55.554545"/>
      </g>
     </g>
     <g id="line2d_20">
      <g>
       <use style="stroke:#000000;stroke-width:2;" x="648" xlink:href="#m265b74ad56" y="55.554545"/>
      </g>
     </g>
     <g id="text_10">
      <!-- 1.0 -->
      <g transform="translate(54.69375 63.152983)scale(0.2 -0.2)">
       <use xlink:href="#DejaVuSans-49"/>
       <use x="63.623047" xlink:href="#DejaVuSans-46"/>
       <use x="95.410156" xlink:href="#DejaVuSans-48"/>
      </g>
     </g>
    </g>
   </g>
   <g id="line2d_21">
    <path clip-path="url(#pc0683c75ab)" d="M 115.363636 293.493939 
L 116.535167 293.493939 
L 120.049759 279.766667 
L 121.221289 284.342424 
L 122.39282 284.342424 
L 124.735881 293.493939 
L 125.907411 293.493939 
L 127.078942 288.918182 
L 129.422003 288.918182 
L 130.593533 293.493939 
L 132.936595 284.342424 
L 135.279656 293.493939 
L 136.451186 288.918182 
L 137.622717 288.918182 
L 138.794247 298.069697 
L 139.965778 293.493939 
L 142.308839 302.645455 
L 143.48037 302.645455 
L 144.6519 293.493939 
L 145.823431 302.645455 
L 146.994961 302.645455 
L 148.166492 298.069697 
L 149.338022 288.918182 
L 150.509553 293.493939 
L 151.681083 288.918182 
L 152.852614 293.493939 
L 161.053328 293.493939 
L 162.224858 298.069697 
L 163.396389 288.918182 
L 164.567919 293.493939 
L 175.111694 293.493939 
L 176.283225 298.069697 
L 177.454755 298.069697 
L 178.626286 293.493939 
L 180.969347 302.645455 
L 183.312408 302.645455 
L 184.483939 293.493939 
L 185.655469 288.918182 
L 186.827 288.918182 
L 187.99853 293.493939 
L 190.341591 293.493939 
L 191.513122 288.918182 
L 192.684653 293.493939 
L 193.856183 288.918182 
L 195.027714 137.918182 
L 196.199244 78.433333 
L 197.370775 55.554545 
L 241.888936 55.554545 
L 243.060466 64.706061 
L 244.231997 78.433333 
L 246.575058 87.584848 
L 247.746588 87.584848 
L 248.918119 96.736364 
L 250.089649 92.160606 
L 251.26118 96.736364 
L 252.43271 96.736364 
L 253.604241 110.463636 
L 254.775772 105.887879 
L 255.947302 119.615152 
L 257.118833 105.887879 
L 259.461894 133.342424 
L 260.633424 137.918182 
L 261.804955 137.918182 
L 262.976485 151.645455 
L 264.148016 142.493939 
L 265.319547 142.493939 
L 266.491077 151.645455 
L 267.662608 151.645455 
L 268.834138 128.766667 
L 271.177199 147.069697 
L 272.34873 142.493939 
L 273.52026 169.948485 
L 275.863321 151.645455 
L 277.034852 147.069697 
L 278.206383 151.645455 
L 280.549444 169.948485 
L 281.720974 174.524242 
L 282.892505 165.372727 
L 285.235566 183.675758 
L 286.407096 165.372727 
L 287.578627 179.1 
L 288.750157 174.524242 
L 289.921688 179.1 
L 291.093219 169.948485 
L 292.264749 183.675758 
L 293.43628 169.948485 
L 294.60781 188.251515 
L 295.779341 192.827273 
L 296.950871 183.675758 
L 298.122402 201.978788 
L 299.293932 201.978788 
L 300.465463 183.675758 
L 301.636993 174.524242 
L 302.808524 183.675758 
L 303.980055 169.948485 
L 305.151585 174.524242 
L 306.323116 174.524242 
L 307.494646 197.40303 
L 308.666177 169.948485 
L 309.837707 174.524242 
L 311.009238 183.675758 
L 312.180768 179.1 
L 313.352299 165.372727 
L 314.52383 183.675758 
L 315.69536 188.251515 
L 316.866891 188.251515 
L 319.209952 197.40303 
L 320.381482 183.675758 
L 321.553013 192.827273 
L 322.724543 192.827273 
L 323.896074 201.978788 
L 325.067604 197.40303 
L 326.239135 183.675758 
L 327.410666 197.40303 
L 328.582196 183.675758 
L 329.753727 197.40303 
L 330.925257 192.827273 
L 332.096788 197.40303 
L 333.268318 188.251515 
L 334.439849 188.251515 
L 336.78291 197.40303 
L 337.95444 183.675758 
L 339.125971 206.554545 
L 340.297502 206.554545 
L 341.469032 188.251515 
L 342.640563 183.675758 
L 343.812093 197.40303 
L 344.983624 188.251515 
L 346.155154 201.978788 
L 347.326685 201.978788 
L 348.498215 215.706061 
L 349.669746 188.251515 
L 350.841277 206.554545 
L 352.012807 201.978788 
L 353.184338 215.706061 
L 354.355868 211.130303 
L 355.527399 220.281818 
L 356.698929 215.706061 
L 357.87046 224.857576 
L 359.04199 215.706061 
L 360.213521 229.433333 
L 361.385051 229.433333 
L 362.556582 211.130303 
L 363.728113 215.706061 
L 364.899643 215.706061 
L 366.071174 197.40303 
L 367.242704 197.40303 
L 368.414235 215.706061 
L 369.585765 197.40303 
L 370.757296 211.130303 
L 373.100357 211.130303 
L 374.271887 206.554545 
L 375.443418 197.40303 
L 376.614949 215.706061 
L 377.786479 224.857576 
L 378.95801 224.857576 
L 380.12954 229.433333 
L 381.301071 220.281818 
L 382.472601 229.433333 
L 383.644132 215.706061 
L 384.815662 224.857576 
L 385.987193 215.706061 
L 387.158723 234.009091 
L 388.330254 229.433333 
L 389.501785 220.281818 
L 390.673315 220.281818 
L 391.844846 238.584848 
L 393.016376 224.857576 
L 395.359437 234.009091 
L 396.530968 224.857576 
L 397.702498 238.584848 
L 398.874029 238.584848 
L 400.04556 234.009091 
L 401.21709 243.160606 
L 402.388621 256.887879 
L 403.560151 247.736364 
L 404.731682 256.887879 
L 405.903212 247.736364 
L 407.074743 247.736364 
L 408.246273 256.887879 
L 410.589334 247.736364 
L 411.760865 252.312121 
L 412.932396 247.736364 
L 414.103926 252.312121 
L 416.446987 252.312121 
L 417.618518 247.736364 
L 418.790048 256.887879 
L 419.961579 256.887879 
L 421.133109 252.312121 
L 422.30464 252.312121 
L 423.47617 243.160606 
L 425.819232 252.312121 
L 426.990762 252.312121 
L 428.162293 256.887879 
L 429.333823 252.312121 
L 430.505354 266.039394 
L 431.676884 252.312121 
L 432.848415 256.887879 
L 434.019945 270.615152 
L 435.191476 266.039394 
L 436.363007 279.766667 
L 437.534537 275.190909 
L 438.706068 266.039394 
L 439.877598 270.615152 
L 441.049129 270.615152 
L 442.220659 261.463636 
L 443.39219 275.190909 
L 444.56372 270.615152 
L 445.735251 256.887879 
L 446.906781 252.312121 
L 448.078312 261.463636 
L 449.249843 247.736364 
L 450.421373 247.736364 
L 451.592904 252.312121 
L 452.764434 266.039394 
L 455.107495 266.039394 
L 456.279026 247.736364 
L 457.450556 247.736364 
L 458.622087 252.312121 
L 459.793617 266.039394 
L 460.965148 266.039394 
L 462.136679 261.463636 
L 463.308209 261.463636 
L 465.65127 270.615152 
L 466.822801 261.463636 
L 469.165862 270.615152 
L 472.680453 270.615152 
L 473.851984 266.039394 
L 475.023515 279.766667 
L 476.195045 270.615152 
L 477.366576 275.190909 
L 479.709637 266.039394 
L 480.881167 270.615152 
L 483.224228 270.615152 
L 484.395759 266.039394 
L 485.56729 270.615152 
L 487.910351 270.615152 
L 489.081881 252.312121 
L 490.253412 261.463636 
L 492.596473 261.463636 
L 493.768003 256.887879 
L 494.939534 266.039394 
L 497.282595 266.039394 
L 498.454126 270.615152 
L 499.625656 270.615152 
L 500.797187 279.766667 
L 501.968717 270.615152 
L 503.140248 266.039394 
L 504.311778 270.615152 
L 505.483309 270.615152 
L 506.654839 261.463636 
L 507.82637 266.039394 
L 508.9979 266.039394 
L 510.169431 261.463636 
L 511.340962 261.463636 
L 512.512492 270.615152 
L 513.684023 270.615152 
L 514.855553 279.766667 
L 516.027084 270.615152 
L 517.198614 266.039394 
L 518.370145 275.190909 
L 519.541675 279.766667 
L 520.713206 270.615152 
L 527.742389 270.615152 
L 528.91392 279.766667 
L 530.08545 270.615152 
L 531.256981 275.190909 
L 532.428511 270.615152 
L 533.600042 270.615152 
L 534.771573 266.039394 
L 535.943103 266.039394 
L 537.114634 270.615152 
L 538.286164 266.039394 
L 539.457695 266.039394 
L 540.629225 270.615152 
L 541.800756 266.039394 
L 542.972286 275.190909 
L 544.143817 279.766667 
L 545.315347 275.190909 
L 546.486878 206.554545 
L 547.658409 183.675758 
L 548.829939 169.948485 
L 550.00147 160.79697 
L 551.173 165.372727 
L 552.344531 174.524242 
L 553.516061 179.1 
L 554.687592 179.1 
L 555.859122 165.372727 
L 558.202183 165.372727 
L 559.373714 160.79697 
L 560.545245 137.918182 
L 561.716775 142.493939 
L 562.888306 156.221212 
L 564.059836 137.918182 
L 565.231367 133.342424 
L 566.402897 142.493939 
L 567.574428 128.766667 
L 568.745958 142.493939 
L 569.917489 124.190909 
L 571.08902 137.918182 
L 572.26055 147.069697 
L 573.432081 137.918182 
L 574.603611 137.918182 
L 575.775142 124.190909 
L 576.946672 137.918182 
L 578.118203 137.918182 
L 579.289733 133.342424 
L 580.461264 115.039394 
L 581.632794 105.887879 
L 583.975856 105.887879 
L 585.147386 96.736364 
L 586.318917 105.887879 
L 587.490447 92.160606 
L 588.661978 92.160606 
L 589.833508 101.312121 
L 591.005039 96.736364 
L 592.176569 96.736364 
L 594.51963 105.887879 
L 595.691161 101.312121 
L 596.862692 101.312121 
L 599.205753 92.160606 
L 600.377283 96.736364 
L 603.891875 96.736364 
L 606.234936 87.584848 
L 607.406467 96.736364 
L 608.577997 96.736364 
L 609.749528 92.160606 
L 610.921058 101.312121 
L 612.092589 96.736364 
L 613.264119 87.584848 
L 615.60718 87.584848 
L 616.778711 96.736364 
L 620.293303 96.736364 
L 621.464833 92.160606 
L 622.636364 92.160606 
L 622.636364 92.160606 
" style="fill:none;stroke:#008fd5;stroke-linecap:square;stroke-width:5;"/>
   </g>
   <g id="patch_3">
    <path d="M 90 315 
L 90 43.2 
" style="fill:none;stroke:#000000;stroke-linecap:square;stroke-linejoin:miter;stroke-width:2;"/>
   </g>
   <g id="patch_4">
    <path d="M 648 315 
L 648 43.2 
" style="fill:none;stroke:#000000;stroke-linecap:square;stroke-linejoin:miter;stroke-width:2;"/>
   </g>
   <g id="patch_5">
    <path d="M 90 315 
L 648 315 
" style="fill:none;stroke:#000000;stroke-linecap:square;stroke-linejoin:miter;stroke-width:2;"/>
   </g>
   <g id="patch_6">
    <path d="M 90 43.2 
L 648 43.2 
" style="fill:none;stroke:#000000;stroke-linecap:square;stroke-linejoin:miter;stroke-width:2;"/>
   </g>
  </g>
 </g>
 <defs>
  <clipPath id="pc0683c75ab">
   <rect height="271.8" width="558" x="90" y="43.2"/>
  </clipPath>
 </defs>
</svg>
