<?xml version="1.0" encoding="utf-8" standalone="no"?>
<!DOCTYPE svg PUBLIC "-//W3C//DTD SVG 1.1//EN"
  "http://www.w3.org/Graphics/SVG/1.1/DTD/svg11.dtd">
<!-- Created with matplotlib (https://matplotlib.org/) -->
<svg height="360pt" version="1.1" viewBox="0 0 720 360" width="720pt" xmlns="http://www.w3.org/2000/svg" xmlns:xlink="http://www.w3.org/1999/xlink">
 <metadata>
  <rdf:RDF xmlns:cc="http://creativecommons.org/ns#" xmlns:dc="http://purl.org/dc/elements/1.1/" xmlns:rdf="http://www.w3.org/1999/02/22-rdf-syntax-ns#">
   <cc:Work>
    <dc:type rdf:resource="http://purl.org/dc/dcmitype/StillImage"/>
    <dc:date>2022-04-30T21:30:42.537406</dc:date>
    <dc:format>image/svg+xml</dc:format>
    <dc:creator>
     <cc:Agent>
      <dc:title>Matplotlib v3.3.4, https://matplotlib.org/</dc:title>
     </cc:Agent>
    </dc:creator>
   </cc:Work>
  </rdf:RDF>
 </metadata>
 <defs>
  <style type="text/css">*{stroke-linecap:butt;stroke-linejoin:round;}</style>
 </defs>
 <g id="figure_1">
  <g id="patch_1">
   <path d="M 0 360 
L 720 360 
L 720 0 
L 0 0 
z
" style="fill:none;"/>
  </g>
  <g id="axes_1">
   <g id="patch_2">
    <path d="M 90 315 
L 648 315 
L 648 43.2 
L 90 43.2 
z
" style="fill:#ffffff;"/>
   </g>
   <g id="matplotlib.axis_1">
    <g id="xtick_1">
     <g id="line2d_1">
      <defs>
       <path d="M 0 0 
L 0 -7 
" id="m7038258fdc" style="stroke:#000000;stroke-width:2;"/>
      </defs>
      <g>
       <use style="stroke:#000000;stroke-width:2;" x="115.363636" xlink:href="#m7038258fdc" y="315"/>
      </g>
     </g>
     <g id="line2d_2">
      <defs>
       <path d="M 0 0 
L 0 7 
" id="m711d63a3cc" style="stroke:#000000;stroke-width:2;"/>
      </defs>
      <g>
       <use style="stroke:#000000;stroke-width:2;" x="115.363636" xlink:href="#m711d63a3cc" y="43.2"/>
      </g>
     </g>
     <g id="text_1">
      <!-- 0 -->
      <g transform="translate(109.001136 333.696875)scale(0.2 -0.2)">
       <defs>
        <path d="M 31.78125 66.40625 
Q 24.171875 66.40625 20.328125 58.90625 
Q 16.5 51.421875 16.5 36.375 
Q 16.5 21.390625 20.328125 13.890625 
Q 24.171875 6.390625 31.78125 6.390625 
Q 39.453125 6.390625 43.28125 13.890625 
Q 47.125 21.390625 47.125 36.375 
Q 47.125 51.421875 43.28125 58.90625 
Q 39.453125 66.40625 31.78125 66.40625 
z
M 31.78125 74.21875 
Q 44.046875 74.21875 50.515625 64.515625 
Q 56.984375 54.828125 56.984375 36.375 
Q 56.984375 17.96875 50.515625 8.265625 
Q 44.046875 -1.421875 31.78125 -1.421875 
Q 19.53125 -1.421875 13.0625 8.265625 
Q 6.59375 17.96875 6.59375 36.375 
Q 6.59375 54.828125 13.0625 64.515625 
Q 19.53125 74.21875 31.78125 74.21875 
z
" id="DejaVuSans-48"/>
       </defs>
       <use xlink:href="#DejaVuSans-48"/>
      </g>
     </g>
    </g>
    <g id="xtick_2">
     <g id="line2d_3">
      <g>
       <use style="stroke:#000000;stroke-width:2;" x="232.516691" xlink:href="#m7038258fdc" y="315"/>
      </g>
     </g>
     <g id="line2d_4">
      <g>
       <use style="stroke:#000000;stroke-width:2;" x="232.516691" xlink:href="#m711d63a3cc" y="43.2"/>
      </g>
     </g>
     <g id="text_2">
      <!-- 100 -->
      <g transform="translate(213.429191 333.696875)scale(0.2 -0.2)">
       <defs>
        <path d="M 12.40625 8.296875 
L 28.515625 8.296875 
L 28.515625 63.921875 
L 10.984375 60.40625 
L 10.984375 69.390625 
L 28.421875 72.90625 
L 38.28125 72.90625 
L 38.28125 8.296875 
L 54.390625 8.296875 
L 54.390625 0 
L 12.40625 0 
z
" id="DejaVuSans-49"/>
       </defs>
       <use xlink:href="#DejaVuSans-49"/>
       <use x="63.623047" xlink:href="#DejaVuSans-48"/>
       <use x="127.246094" xlink:href="#DejaVuSans-48"/>
      </g>
     </g>
    </g>
    <g id="xtick_3">
     <g id="line2d_5">
      <g>
       <use style="stroke:#000000;stroke-width:2;" x="349.669746" xlink:href="#m7038258fdc" y="315"/>
      </g>
     </g>
     <g id="line2d_6">
      <g>
       <use style="stroke:#000000;stroke-width:2;" x="349.669746" xlink:href="#m711d63a3cc" y="43.2"/>
      </g>
     </g>
     <g id="text_3">
      <!-- 200 -->
      <g transform="translate(330.582246 333.696875)scale(0.2 -0.2)">
       <defs>
        <path d="M 19.1875 8.296875 
L 53.609375 8.296875 
L 53.609375 0 
L 7.328125 0 
L 7.328125 8.296875 
Q 12.9375 14.109375 22.625 23.890625 
Q 32.328125 33.6875 34.8125 36.53125 
Q 39.546875 41.84375 41.421875 45.53125 
Q 43.3125 49.21875 43.3125 52.78125 
Q 43.3125 58.59375 39.234375 62.25 
Q 35.15625 65.921875 28.609375 65.921875 
Q 23.96875 65.921875 18.8125 64.3125 
Q 13.671875 62.703125 7.8125 59.421875 
L 7.8125 69.390625 
Q 13.765625 71.78125 18.9375 73 
Q 24.125 74.21875 28.421875 74.21875 
Q 39.75 74.21875 46.484375 68.546875 
Q 53.21875 62.890625 53.21875 53.421875 
Q 53.21875 48.921875 51.53125 44.890625 
Q 49.859375 40.875 45.40625 35.40625 
Q 44.1875 33.984375 37.640625 27.21875 
Q 31.109375 20.453125 19.1875 8.296875 
z
" id="DejaVuSans-50"/>
       </defs>
       <use xlink:href="#DejaVuSans-50"/>
       <use x="63.623047" xlink:href="#DejaVuSans-48"/>
       <use x="127.246094" xlink:href="#DejaVuSans-48"/>
      </g>
     </g>
    </g>
    <g id="xtick_4">
     <g id="line2d_7">
      <g>
       <use style="stroke:#000000;stroke-width:2;" x="466.822801" xlink:href="#m7038258fdc" y="315"/>
      </g>
     </g>
     <g id="line2d_8">
      <g>
       <use style="stroke:#000000;stroke-width:2;" x="466.822801" xlink:href="#m711d63a3cc" y="43.2"/>
      </g>
     </g>
     <g id="text_4">
      <!-- 300 -->
      <g transform="translate(447.735301 333.696875)scale(0.2 -0.2)">
       <defs>
        <path d="M 40.578125 39.3125 
Q 47.65625 37.796875 51.625 33 
Q 55.609375 28.21875 55.609375 21.1875 
Q 55.609375 10.40625 48.1875 4.484375 
Q 40.765625 -1.421875 27.09375 -1.421875 
Q 22.515625 -1.421875 17.65625 -0.515625 
Q 12.796875 0.390625 7.625 2.203125 
L 7.625 11.71875 
Q 11.71875 9.328125 16.59375 8.109375 
Q 21.484375 6.890625 26.8125 6.890625 
Q 36.078125 6.890625 40.9375 10.546875 
Q 45.796875 14.203125 45.796875 21.1875 
Q 45.796875 27.640625 41.28125 31.265625 
Q 36.765625 34.90625 28.71875 34.90625 
L 20.21875 34.90625 
L 20.21875 43.015625 
L 29.109375 43.015625 
Q 36.375 43.015625 40.234375 45.921875 
Q 44.09375 48.828125 44.09375 54.296875 
Q 44.09375 59.90625 40.109375 62.90625 
Q 36.140625 65.921875 28.71875 65.921875 
Q 24.65625 65.921875 20.015625 65.03125 
Q 15.375 64.15625 9.8125 62.3125 
L 9.8125 71.09375 
Q 15.4375 72.65625 20.34375 73.4375 
Q 25.25 74.21875 29.59375 74.21875 
Q 40.828125 74.21875 47.359375 69.109375 
Q 53.90625 64.015625 53.90625 55.328125 
Q 53.90625 49.265625 50.4375 45.09375 
Q 46.96875 40.921875 40.578125 39.3125 
z
" id="DejaVuSans-51"/>
       </defs>
       <use xlink:href="#DejaVuSans-51"/>
       <use x="63.623047" xlink:href="#DejaVuSans-48"/>
       <use x="127.246094" xlink:href="#DejaVuSans-48"/>
      </g>
     </g>
    </g>
    <g id="xtick_5">
     <g id="line2d_9">
      <g>
       <use style="stroke:#000000;stroke-width:2;" x="583.975856" xlink:href="#m7038258fdc" y="315"/>
      </g>
     </g>
     <g id="line2d_10">
      <g>
       <use style="stroke:#000000;stroke-width:2;" x="583.975856" xlink:href="#m711d63a3cc" y="43.2"/>
      </g>
     </g>
     <g id="text_5">
      <!-- 400 -->
      <g transform="translate(564.888356 333.696875)scale(0.2 -0.2)">
       <defs>
        <path d="M 37.796875 64.3125 
L 12.890625 25.390625 
L 37.796875 25.390625 
z
M 35.203125 72.90625 
L 47.609375 72.90625 
L 47.609375 25.390625 
L 58.015625 25.390625 
L 58.015625 17.1875 
L 47.609375 17.1875 
L 47.609375 0 
L 37.796875 0 
L 37.796875 17.1875 
L 4.890625 17.1875 
L 4.890625 26.703125 
z
" id="DejaVuSans-52"/>
       </defs>
       <use xlink:href="#DejaVuSans-52"/>
       <use x="63.623047" xlink:href="#DejaVuSans-48"/>
       <use x="127.246094" xlink:href="#DejaVuSans-48"/>
      </g>
     </g>
    </g>
   </g>
   <g id="matplotlib.axis_2">
    <g id="ytick_1">
     <g id="line2d_11">
      <defs>
       <path d="M 0 0 
L 7 0 
" id="m8c0c6ffb16" style="stroke:#000000;stroke-width:2;"/>
      </defs>
      <g>
       <use style="stroke:#000000;stroke-width:2;" x="90" xlink:href="#m8c0c6ffb16" y="311.315311"/>
      </g>
     </g>
     <g id="line2d_12">
      <defs>
       <path d="M 0 0 
L -7 0 
" id="mc02c56f92b" style="stroke:#000000;stroke-width:2;"/>
      </defs>
      <g>
       <use style="stroke:#000000;stroke-width:2;" x="648" xlink:href="#mc02c56f92b" y="311.315311"/>
      </g>
     </g>
     <g id="text_6">
      <!-- 0.0 -->
      <g transform="translate(54.69375 318.913749)scale(0.2 -0.2)">
       <defs>
        <path d="M 10.6875 12.40625 
L 21 12.40625 
L 21 0 
L 10.6875 0 
z
" id="DejaVuSans-46"/>
       </defs>
       <use xlink:href="#DejaVuSans-48"/>
       <use x="63.623047" xlink:href="#DejaVuSans-46"/>
       <use x="95.410156" xlink:href="#DejaVuSans-48"/>
      </g>
     </g>
    </g>
    <g id="ytick_2">
     <g id="line2d_13">
      <g>
       <use style="stroke:#000000;stroke-width:2;" x="90" xlink:href="#m8c0c6ffb16" y="260.163158"/>
      </g>
     </g>
     <g id="line2d_14">
      <g>
       <use style="stroke:#000000;stroke-width:2;" x="648" xlink:href="#mc02c56f92b" y="260.163158"/>
      </g>
     </g>
     <g id="text_7">
      <!-- 0.2 -->
      <g transform="translate(54.69375 267.761595)scale(0.2 -0.2)">
       <use xlink:href="#DejaVuSans-48"/>
       <use x="63.623047" xlink:href="#DejaVuSans-46"/>
       <use x="95.410156" xlink:href="#DejaVuSans-50"/>
      </g>
     </g>
    </g>
    <g id="ytick_3">
     <g id="line2d_15">
      <g>
       <use style="stroke:#000000;stroke-width:2;" x="90" xlink:href="#m8c0c6ffb16" y="209.011005"/>
      </g>
     </g>
     <g id="line2d_16">
      <g>
       <use style="stroke:#000000;stroke-width:2;" x="648" xlink:href="#mc02c56f92b" y="209.011005"/>
      </g>
     </g>
     <g id="text_8">
      <!-- 0.4 -->
      <g transform="translate(54.69375 216.609442)scale(0.2 -0.2)">
       <use xlink:href="#DejaVuSans-48"/>
       <use x="63.623047" xlink:href="#DejaVuSans-46"/>
       <use x="95.410156" xlink:href="#DejaVuSans-52"/>
      </g>
     </g>
    </g>
    <g id="ytick_4">
     <g id="line2d_17">
      <g>
       <use style="stroke:#000000;stroke-width:2;" x="90" xlink:href="#m8c0c6ffb16" y="157.858852"/>
      </g>
     </g>
     <g id="line2d_18">
      <g>
       <use style="stroke:#000000;stroke-width:2;" x="648" xlink:href="#mc02c56f92b" y="157.858852"/>
      </g>
     </g>
     <g id="text_9">
      <!-- 0.6 -->
      <g transform="translate(54.69375 165.457289)scale(0.2 -0.2)">
       <defs>
        <path d="M 33.015625 40.375 
Q 26.375 40.375 22.484375 35.828125 
Q 18.609375 31.296875 18.609375 23.390625 
Q 18.609375 15.53125 22.484375 10.953125 
Q 26.375 6.390625 33.015625 6.390625 
Q 39.65625 6.390625 43.53125 10.953125 
Q 47.40625 15.53125 47.40625 23.390625 
Q 47.40625 31.296875 43.53125 35.828125 
Q 39.65625 40.375 33.015625 40.375 
z
M 52.59375 71.296875 
L 52.59375 62.3125 
Q 48.875 64.0625 45.09375 64.984375 
Q 41.3125 65.921875 37.59375 65.921875 
Q 27.828125 65.921875 22.671875 59.328125 
Q 17.53125 52.734375 16.796875 39.40625 
Q 19.671875 43.65625 24.015625 45.921875 
Q 28.375 48.1875 33.59375 48.1875 
Q 44.578125 48.1875 50.953125 41.515625 
Q 57.328125 34.859375 57.328125 23.390625 
Q 57.328125 12.15625 50.6875 5.359375 
Q 44.046875 -1.421875 33.015625 -1.421875 
Q 20.359375 -1.421875 13.671875 8.265625 
Q 6.984375 17.96875 6.984375 36.375 
Q 6.984375 53.65625 15.1875 63.9375 
Q 23.390625 74.21875 37.203125 74.21875 
Q 40.921875 74.21875 44.703125 73.484375 
Q 48.484375 72.75 52.59375 71.296875 
z
" id="DejaVuSans-54"/>
       </defs>
       <use xlink:href="#DejaVuSans-48"/>
       <use x="63.623047" xlink:href="#DejaVuSans-46"/>
       <use x="95.410156" xlink:href="#DejaVuSans-54"/>
      </g>
     </g>
    </g>
    <g id="ytick_5">
     <g id="line2d_19">
      <g>
       <use style="stroke:#000000;stroke-width:2;" x="90" xlink:href="#m8c0c6ffb16" y="106.706699"/>
      </g>
     </g>
     <g id="line2d_20">
      <g>
       <use style="stroke:#000000;stroke-width:2;" x="648" xlink:href="#mc02c56f92b" y="106.706699"/>
      </g>
     </g>
     <g id="text_10">
      <!-- 0.8 -->
      <g transform="translate(54.69375 114.305136)scale(0.2 -0.2)">
       <defs>
        <path d="M 31.78125 34.625 
Q 24.75 34.625 20.71875 30.859375 
Q 16.703125 27.09375 16.703125 20.515625 
Q 16.703125 13.921875 20.71875 10.15625 
Q 24.75 6.390625 31.78125 6.390625 
Q 38.8125 6.390625 42.859375 10.171875 
Q 46.921875 13.96875 46.921875 20.515625 
Q 46.921875 27.09375 42.890625 30.859375 
Q 38.875 34.625 31.78125 34.625 
z
M 21.921875 38.8125 
Q 15.578125 40.375 12.03125 44.71875 
Q 8.5 49.078125 8.5 55.328125 
Q 8.5 64.0625 14.71875 69.140625 
Q 20.953125 74.21875 31.78125 74.21875 
Q 42.671875 74.21875 48.875 69.140625 
Q 55.078125 64.0625 55.078125 55.328125 
Q 55.078125 49.078125 51.53125 44.71875 
Q 48 40.375 41.703125 38.8125 
Q 48.828125 37.15625 52.796875 32.3125 
Q 56.78125 27.484375 56.78125 20.515625 
Q 56.78125 9.90625 50.3125 4.234375 
Q 43.84375 -1.421875 31.78125 -1.421875 
Q 19.734375 -1.421875 13.25 4.234375 
Q 6.78125 9.90625 6.78125 20.515625 
Q 6.78125 27.484375 10.78125 32.3125 
Q 14.796875 37.15625 21.921875 38.8125 
z
M 18.3125 54.390625 
Q 18.3125 48.734375 21.84375 45.5625 
Q 25.390625 42.390625 31.78125 42.390625 
Q 38.140625 42.390625 41.71875 45.5625 
Q 45.3125 48.734375 45.3125 54.390625 
Q 45.3125 60.0625 41.71875 63.234375 
Q 38.140625 66.40625 31.78125 66.40625 
Q 25.390625 66.40625 21.84375 63.234375 
Q 18.3125 60.0625 18.3125 54.390625 
z
" id="DejaVuSans-56"/>
       </defs>
       <use xlink:href="#DejaVuSans-48"/>
       <use x="63.623047" xlink:href="#DejaVuSans-46"/>
       <use x="95.410156" xlink:href="#DejaVuSans-56"/>
      </g>
     </g>
    </g>
    <g id="ytick_6">
     <g id="line2d_21">
      <g>
       <use style="stroke:#000000;stroke-width:2;" x="90" xlink:href="#m8c0c6ffb16" y="55.554545"/>
      </g>
     </g>
     <g id="line2d_22">
      <g>
       <use style="stroke:#000000;stroke-width:2;" x="648" xlink:href="#mc02c56f92b" y="55.554545"/>
      </g>
     </g>
     <g id="text_11">
      <!-- 1.0 -->
      <g transform="translate(54.69375 63.152983)scale(0.2 -0.2)">
       <use xlink:href="#DejaVuSans-49"/>
       <use x="63.623047" xlink:href="#DejaVuSans-46"/>
       <use x="95.410156" xlink:href="#DejaVuSans-48"/>
      </g>
     </g>
    </g>
   </g>
   <g id="line2d_23">
    <path clip-path="url(#p75cd8c4728)" d="M 115.363636 280.970813 
L 116.535167 285.305742 
L 117.706697 272.300957 
L 118.878228 267.966029 
L 120.049759 289.64067 
L 121.221289 280.970813 
L 122.39282 276.635885 
L 124.735881 276.635885 
L 125.907411 272.300957 
L 127.078942 285.305742 
L 128.250472 289.64067 
L 129.422003 272.300957 
L 130.593533 285.305742 
L 131.765064 272.300957 
L 132.936595 276.635885 
L 135.279656 259.296172 
L 136.451186 267.966029 
L 137.622717 280.970813 
L 138.794247 276.635885 
L 139.965778 280.970813 
L 141.137308 267.966029 
L 142.308839 259.296172 
L 143.48037 272.300957 
L 145.823431 263.6311 
L 146.994961 254.961244 
L 149.338022 263.6311 
L 150.509553 276.635885 
L 151.681083 267.966029 
L 152.852614 267.966029 
L 154.024144 272.300957 
L 155.195675 285.305742 
L 156.367206 276.635885 
L 157.538736 272.300957 
L 158.710267 263.6311 
L 159.881797 267.966029 
L 161.053328 259.296172 
L 162.224858 254.961244 
L 163.396389 259.296172 
L 164.567919 259.296172 
L 165.73945 267.966029 
L 166.91098 285.305742 
L 168.082511 272.300957 
L 169.254042 272.300957 
L 170.425572 267.966029 
L 171.597103 280.970813 
L 172.768633 272.300957 
L 173.940164 254.961244 
L 175.111694 276.635885 
L 176.283225 285.305742 
L 177.454755 285.305742 
L 178.626286 276.635885 
L 180.969347 293.975598 
L 182.140878 280.970813 
L 184.483939 272.300957 
L 185.655469 289.64067 
L 187.99853 289.64067 
L 189.170061 285.305742 
L 190.341591 289.64067 
L 191.513122 298.310526 
L 192.684653 280.970813 
L 193.856183 280.970813 
L 195.027714 55.554545 
L 240.717405 55.554545 
L 241.888936 64.224402 
L 243.060466 68.55933 
L 244.231997 81.564115 
L 245.403527 103.238756 
L 246.575058 137.918182 
L 247.746588 185.602392 
L 248.918119 220.281818 
L 250.089649 233.286603 
L 251.26118 250.626316 
L 252.43271 263.6311 
L 253.604241 250.626316 
L 254.775772 250.626316 
L 255.947302 259.296172 
L 257.118833 250.626316 
L 258.290363 254.961244 
L 261.804955 254.961244 
L 262.976485 272.300957 
L 264.148016 272.300957 
L 265.319547 276.635885 
L 266.491077 276.635885 
L 268.834138 267.966029 
L 271.177199 285.305742 
L 273.52026 259.296172 
L 274.691791 280.970813 
L 275.863321 293.975598 
L 277.034852 276.635885 
L 278.206383 293.975598 
L 279.377913 285.305742 
L 280.549444 280.970813 
L 281.720974 280.970813 
L 282.892505 276.635885 
L 284.064035 285.305742 
L 285.235566 272.300957 
L 286.407096 289.64067 
L 287.578627 280.970813 
L 288.750157 276.635885 
L 289.921688 280.970813 
L 291.093219 276.635885 
L 292.264749 276.635885 
L 293.43628 280.970813 
L 295.779341 272.300957 
L 296.950871 276.635885 
L 298.122402 272.300957 
L 299.293932 259.296172 
L 300.465463 272.300957 
L 301.636993 263.6311 
L 302.808524 276.635885 
L 303.980055 272.300957 
L 305.151585 276.635885 
L 306.323116 263.6311 
L 307.494646 263.6311 
L 308.666177 272.300957 
L 309.837707 276.635885 
L 311.009238 272.300957 
L 312.180768 289.64067 
L 313.352299 285.305742 
L 314.52383 276.635885 
L 315.69536 293.975598 
L 316.866891 280.970813 
L 319.209952 280.970813 
L 320.381482 267.966029 
L 321.553013 263.6311 
L 322.724543 276.635885 
L 323.896074 285.305742 
L 325.067604 285.305742 
L 326.239135 276.635885 
L 327.410666 280.970813 
L 328.582196 289.64067 
L 329.753727 272.300957 
L 330.925257 276.635885 
L 332.096788 267.966029 
L 333.268318 263.6311 
L 334.439849 276.635885 
L 335.611379 276.635885 
L 336.78291 272.300957 
L 337.95444 276.635885 
L 339.125971 276.635885 
L 340.297502 280.970813 
L 341.469032 280.970813 
L 342.640563 276.635885 
L 343.812093 267.966029 
L 346.155154 267.966029 
L 347.326685 276.635885 
L 348.498215 280.970813 
L 350.841277 280.970813 
L 353.184338 263.6311 
L 354.355868 276.635885 
L 356.698929 285.305742 
L 357.87046 272.300957 
L 359.04199 280.970813 
L 360.213521 259.296172 
L 361.385051 289.64067 
L 362.556582 267.966029 
L 363.728113 276.635885 
L 364.899643 298.310526 
L 366.071174 289.64067 
L 367.242704 272.300957 
L 368.414235 280.970813 
L 369.585765 293.975598 
L 370.757296 280.970813 
L 371.928826 276.635885 
L 373.100357 285.305742 
L 374.271887 276.635885 
L 375.443418 280.970813 
L 377.786479 272.300957 
L 378.95801 263.6311 
L 380.12954 263.6311 
L 381.301071 267.966029 
L 382.472601 267.966029 
L 383.644132 263.6311 
L 384.815662 272.300957 
L 385.987193 285.305742 
L 387.158723 272.300957 
L 388.330254 276.635885 
L 390.673315 276.635885 
L 391.844846 298.310526 
L 393.016376 293.975598 
L 394.187907 293.975598 
L 395.359437 285.305742 
L 396.530968 289.64067 
L 397.702498 276.635885 
L 398.874029 276.635885 
L 400.04556 263.6311 
L 401.21709 267.966029 
L 402.388621 267.966029 
L 403.560151 276.635885 
L 404.731682 263.6311 
L 407.074743 272.300957 
L 408.246273 272.300957 
L 410.589334 289.64067 
L 411.760865 285.305742 
L 417.618518 285.305742 
L 418.790048 280.970813 
L 419.961579 289.64067 
L 422.30464 289.64067 
L 423.47617 272.300957 
L 424.647701 267.966029 
L 425.819232 276.635885 
L 426.990762 293.975598 
L 428.162293 272.300957 
L 429.333823 272.300957 
L 430.505354 285.305742 
L 431.676884 272.300957 
L 432.848415 272.300957 
L 434.019945 302.645455 
L 436.363007 285.305742 
L 437.534537 285.305742 
L 438.706068 276.635885 
L 439.877598 280.970813 
L 441.049129 276.635885 
L 442.220659 276.635885 
L 443.39219 267.966029 
L 444.56372 267.966029 
L 446.906781 285.305742 
L 448.078312 276.635885 
L 449.249843 272.300957 
L 450.421373 272.300957 
L 451.592904 293.975598 
L 452.764434 293.975598 
L 453.935965 285.305742 
L 455.107495 272.300957 
L 456.279026 272.300957 
L 457.450556 267.966029 
L 458.622087 280.970813 
L 459.793617 276.635885 
L 460.965148 276.635885 
L 462.136679 289.64067 
L 463.308209 285.305742 
L 464.47974 263.6311 
L 466.822801 272.300957 
L 467.994331 267.966029 
L 469.165862 285.305742 
L 470.337392 276.635885 
L 471.508923 272.300957 
L 472.680453 285.305742 
L 473.851984 285.305742 
L 475.023515 280.970813 
L 476.195045 280.970813 
L 477.366576 289.64067 
L 478.538106 272.300957 
L 479.709637 280.970813 
L 480.881167 267.966029 
L 482.052698 276.635885 
L 483.224228 272.300957 
L 484.395759 280.970813 
L 485.56729 259.296172 
L 486.73882 276.635885 
L 490.253412 263.6311 
L 491.424942 272.300957 
L 492.596473 263.6311 
L 493.768003 263.6311 
L 496.111064 280.970813 
L 497.282595 272.300957 
L 498.454126 285.305742 
L 499.625656 285.305742 
L 500.797187 280.970813 
L 501.968717 272.300957 
L 503.140248 276.635885 
L 504.311778 267.966029 
L 505.483309 276.635885 
L 506.654839 267.966029 
L 507.82637 267.966029 
L 508.9979 280.970813 
L 510.169431 272.300957 
L 511.340962 280.970813 
L 512.512492 272.300957 
L 513.684023 267.966029 
L 514.855553 276.635885 
L 516.027084 267.966029 
L 517.198614 272.300957 
L 520.713206 272.300957 
L 523.056267 280.970813 
L 524.227798 289.64067 
L 525.399328 289.64067 
L 526.570859 293.975598 
L 527.742389 280.970813 
L 528.91392 285.305742 
L 531.256981 285.305742 
L 533.600042 276.635885 
L 535.943103 276.635885 
L 537.114634 267.966029 
L 538.286164 254.961244 
L 539.457695 259.296172 
L 540.629225 250.626316 
L 541.800756 276.635885 
L 542.972286 259.296172 
L 544.143817 263.6311 
L 545.315347 259.296172 
L 546.486878 172.597608 
L 547.658409 198.607177 
L 548.829939 185.602392 
L 550.00147 181.267464 
L 551.173 168.262679 
L 552.344531 168.262679 
L 553.516061 176.932536 
L 554.687592 168.262679 
L 557.030653 185.602392 
L 558.202183 189.937321 
L 559.373714 202.942105 
L 560.545245 202.942105 
L 561.716775 207.277033 
L 562.888306 185.602392 
L 564.059836 194.272249 
L 565.231367 207.277033 
L 566.402897 207.277033 
L 567.574428 211.611962 
L 568.745958 211.611962 
L 569.917489 194.272249 
L 571.08902 194.272249 
L 572.26055 189.937321 
L 573.432081 189.937321 
L 574.603611 198.607177 
L 575.775142 198.607177 
L 576.946672 211.611962 
L 578.118203 202.942105 
L 579.289733 198.607177 
L 580.461264 207.277033 
L 581.632794 202.942105 
L 582.804325 189.937321 
L 583.975856 194.272249 
L 585.147386 211.611962 
L 586.318917 207.277033 
L 587.490447 137.918182 
L 588.661978 124.913397 
L 589.833508 98.903828 
L 591.005039 90.233971 
L 592.176569 98.903828 
L 593.3481 98.903828 
L 594.51963 81.564115 
L 595.691161 85.899043 
L 596.862692 72.894258 
L 598.034222 72.894258 
L 599.205753 94.5689 
L 600.377283 94.5689 
L 601.548814 85.899043 
L 602.720344 85.899043 
L 603.891875 90.233971 
L 605.063405 103.238756 
L 606.234936 103.238756 
L 607.406467 77.229187 
L 608.577997 98.903828 
L 609.749528 107.573684 
L 610.921058 111.908612 
L 612.092589 98.903828 
L 613.264119 94.5689 
L 614.43565 103.238756 
L 615.60718 90.233971 
L 616.778711 85.899043 
L 617.950241 111.908612 
L 619.121772 103.238756 
L 620.293303 120.578469 
L 621.464833 103.238756 
L 622.636364 111.908612 
L 622.636364 111.908612 
" style="fill:none;stroke:#008fd5;stroke-linecap:square;stroke-width:5;"/>
   </g>
   <g id="patch_3">
    <path d="M 90 315 
L 90 43.2 
" style="fill:none;stroke:#000000;stroke-linecap:square;stroke-linejoin:miter;stroke-width:2;"/>
   </g>
   <g id="patch_4">
    <path d="M 648 315 
L 648 43.2 
" style="fill:none;stroke:#000000;stroke-linecap:square;stroke-linejoin:miter;stroke-width:2;"/>
   </g>
   <g id="patch_5">
    <path d="M 90 315 
L 648 315 
" style="fill:none;stroke:#000000;stroke-linecap:square;stroke-linejoin:miter;stroke-width:2;"/>
   </g>
   <g id="patch_6">
    <path d="M 90 43.2 
L 648 43.2 
" style="fill:none;stroke:#000000;stroke-linecap:square;stroke-linejoin:miter;stroke-width:2;"/>
   </g>
  </g>
 </g>
 <defs>
  <clipPath id="p75cd8c4728">
   <rect height="271.8" width="558" x="90" y="43.2"/>
  </clipPath>
 </defs>
</svg>
