<?xml version="1.0" encoding="utf-8" standalone="no"?>
<!DOCTYPE svg PUBLIC "-//W3C//DTD SVG 1.1//EN"
  "http://www.w3.org/Graphics/SVG/1.1/DTD/svg11.dtd">
<!-- Created with matplotlib (https://matplotlib.org/) -->
<svg height="360pt" version="1.1" viewBox="0 0 720 360" width="720pt" xmlns="http://www.w3.org/2000/svg" xmlns:xlink="http://www.w3.org/1999/xlink">
 <metadata>
  <rdf:RDF xmlns:cc="http://creativecommons.org/ns#" xmlns:dc="http://purl.org/dc/elements/1.1/" xmlns:rdf="http://www.w3.org/1999/02/22-rdf-syntax-ns#">
   <cc:Work>
    <dc:type rdf:resource="http://purl.org/dc/dcmitype/StillImage"/>
    <dc:date>2022-04-30T21:30:42.478499</dc:date>
    <dc:format>image/svg+xml</dc:format>
    <dc:creator>
     <cc:Agent>
      <dc:title>Matplotlib v3.3.4, https://matplotlib.org/</dc:title>
     </cc:Agent>
    </dc:creator>
   </cc:Work>
  </rdf:RDF>
 </metadata>
 <defs>
  <style type="text/css">*{stroke-linecap:butt;stroke-linejoin:round;}</style>
 </defs>
 <g id="figure_1">
  <g id="patch_1">
   <path d="M 0 360 
L 720 360 
L 720 0 
L 0 0 
z
" style="fill:none;"/>
  </g>
  <g id="axes_1">
   <g id="patch_2">
    <path d="M 90 315 
L 648 315 
L 648 43.2 
L 90 43.2 
z
" style="fill:#ffffff;"/>
   </g>
   <g id="matplotlib.axis_1">
    <g id="xtick_1">
     <g id="line2d_1">
      <defs>
       <path d="M 0 0 
L 0 -7 
" id="m69d9f28c11" style="stroke:#000000;stroke-width:2;"/>
      </defs>
      <g>
       <use style="stroke:#000000;stroke-width:2;" x="115.363636" xlink:href="#m69d9f28c11" y="315"/>
      </g>
     </g>
     <g id="line2d_2">
      <defs>
       <path d="M 0 0 
L 0 7 
" id="mb8c9ddac6d" style="stroke:#000000;stroke-width:2;"/>
      </defs>
      <g>
       <use style="stroke:#000000;stroke-width:2;" x="115.363636" xlink:href="#mb8c9ddac6d" y="43.2"/>
      </g>
     </g>
     <g id="text_1">
      <!-- 0 -->
      <g transform="translate(109.001136 333.696875)scale(0.2 -0.2)">
       <defs>
        <path d="M 31.78125 66.40625 
Q 24.171875 66.40625 20.328125 58.90625 
Q 16.5 51.421875 16.5 36.375 
Q 16.5 21.390625 20.328125 13.890625 
Q 24.171875 6.390625 31.78125 6.390625 
Q 39.453125 6.390625 43.28125 13.890625 
Q 47.125 21.390625 47.125 36.375 
Q 47.125 51.421875 43.28125 58.90625 
Q 39.453125 66.40625 31.78125 66.40625 
z
M 31.78125 74.21875 
Q 44.046875 74.21875 50.515625 64.515625 
Q 56.984375 54.828125 56.984375 36.375 
Q 56.984375 17.96875 50.515625 8.265625 
Q 44.046875 -1.421875 31.78125 -1.421875 
Q 19.53125 -1.421875 13.0625 8.265625 
Q 6.59375 17.96875 6.59375 36.375 
Q 6.59375 54.828125 13.0625 64.515625 
Q 19.53125 74.21875 31.78125 74.21875 
z
" id="DejaVuSans-48"/>
       </defs>
       <use xlink:href="#DejaVuSans-48"/>
      </g>
     </g>
    </g>
    <g id="xtick_2">
     <g id="line2d_3">
      <g>
       <use style="stroke:#000000;stroke-width:2;" x="232.516691" xlink:href="#m69d9f28c11" y="315"/>
      </g>
     </g>
     <g id="line2d_4">
      <g>
       <use style="stroke:#000000;stroke-width:2;" x="232.516691" xlink:href="#mb8c9ddac6d" y="43.2"/>
      </g>
     </g>
     <g id="text_2">
      <!-- 100 -->
      <g transform="translate(213.429191 333.696875)scale(0.2 -0.2)">
       <defs>
        <path d="M 12.40625 8.296875 
L 28.515625 8.296875 
L 28.515625 63.921875 
L 10.984375 60.40625 
L 10.984375 69.390625 
L 28.421875 72.90625 
L 38.28125 72.90625 
L 38.28125 8.296875 
L 54.390625 8.296875 
L 54.390625 0 
L 12.40625 0 
z
" id="DejaVuSans-49"/>
       </defs>
       <use xlink:href="#DejaVuSans-49"/>
       <use x="63.623047" xlink:href="#DejaVuSans-48"/>
       <use x="127.246094" xlink:href="#DejaVuSans-48"/>
      </g>
     </g>
    </g>
    <g id="xtick_3">
     <g id="line2d_5">
      <g>
       <use style="stroke:#000000;stroke-width:2;" x="349.669746" xlink:href="#m69d9f28c11" y="315"/>
      </g>
     </g>
     <g id="line2d_6">
      <g>
       <use style="stroke:#000000;stroke-width:2;" x="349.669746" xlink:href="#mb8c9ddac6d" y="43.2"/>
      </g>
     </g>
     <g id="text_3">
      <!-- 200 -->
      <g transform="translate(330.582246 333.696875)scale(0.2 -0.2)">
       <defs>
        <path d="M 19.1875 8.296875 
L 53.609375 8.296875 
L 53.609375 0 
L 7.328125 0 
L 7.328125 8.296875 
Q 12.9375 14.109375 22.625 23.890625 
Q 32.328125 33.6875 34.8125 36.53125 
Q 39.546875 41.84375 41.421875 45.53125 
Q 43.3125 49.21875 43.3125 52.78125 
Q 43.3125 58.59375 39.234375 62.25 
Q 35.15625 65.921875 28.609375 65.921875 
Q 23.96875 65.921875 18.8125 64.3125 
Q 13.671875 62.703125 7.8125 59.421875 
L 7.8125 69.390625 
Q 13.765625 71.78125 18.9375 73 
Q 24.125 74.21875 28.421875 74.21875 
Q 39.75 74.21875 46.484375 68.546875 
Q 53.21875 62.890625 53.21875 53.421875 
Q 53.21875 48.921875 51.53125 44.890625 
Q 49.859375 40.875 45.40625 35.40625 
Q 44.1875 33.984375 37.640625 27.21875 
Q 31.109375 20.453125 19.1875 8.296875 
z
" id="DejaVuSans-50"/>
       </defs>
       <use xlink:href="#DejaVuSans-50"/>
       <use x="63.623047" xlink:href="#DejaVuSans-48"/>
       <use x="127.246094" xlink:href="#DejaVuSans-48"/>
      </g>
     </g>
    </g>
    <g id="xtick_4">
     <g id="line2d_7">
      <g>
       <use style="stroke:#000000;stroke-width:2;" x="466.822801" xlink:href="#m69d9f28c11" y="315"/>
      </g>
     </g>
     <g id="line2d_8">
      <g>
       <use style="stroke:#000000;stroke-width:2;" x="466.822801" xlink:href="#mb8c9ddac6d" y="43.2"/>
      </g>
     </g>
     <g id="text_4">
      <!-- 300 -->
      <g transform="translate(447.735301 333.696875)scale(0.2 -0.2)">
       <defs>
        <path d="M 40.578125 39.3125 
Q 47.65625 37.796875 51.625 33 
Q 55.609375 28.21875 55.609375 21.1875 
Q 55.609375 10.40625 48.1875 4.484375 
Q 40.765625 -1.421875 27.09375 -1.421875 
Q 22.515625 -1.421875 17.65625 -0.515625 
Q 12.796875 0.390625 7.625 2.203125 
L 7.625 11.71875 
Q 11.71875 9.328125 16.59375 8.109375 
Q 21.484375 6.890625 26.8125 6.890625 
Q 36.078125 6.890625 40.9375 10.546875 
Q 45.796875 14.203125 45.796875 21.1875 
Q 45.796875 27.640625 41.28125 31.265625 
Q 36.765625 34.90625 28.71875 34.90625 
L 20.21875 34.90625 
L 20.21875 43.015625 
L 29.109375 43.015625 
Q 36.375 43.015625 40.234375 45.921875 
Q 44.09375 48.828125 44.09375 54.296875 
Q 44.09375 59.90625 40.109375 62.90625 
Q 36.140625 65.921875 28.71875 65.921875 
Q 24.65625 65.921875 20.015625 65.03125 
Q 15.375 64.15625 9.8125 62.3125 
L 9.8125 71.09375 
Q 15.4375 72.65625 20.34375 73.4375 
Q 25.25 74.21875 29.59375 74.21875 
Q 40.828125 74.21875 47.359375 69.109375 
Q 53.90625 64.015625 53.90625 55.328125 
Q 53.90625 49.265625 50.4375 45.09375 
Q 46.96875 40.921875 40.578125 39.3125 
z
" id="DejaVuSans-51"/>
       </defs>
       <use xlink:href="#DejaVuSans-51"/>
       <use x="63.623047" xlink:href="#DejaVuSans-48"/>
       <use x="127.246094" xlink:href="#DejaVuSans-48"/>
      </g>
     </g>
    </g>
    <g id="xtick_5">
     <g id="line2d_9">
      <g>
       <use style="stroke:#000000;stroke-width:2;" x="583.975856" xlink:href="#m69d9f28c11" y="315"/>
      </g>
     </g>
     <g id="line2d_10">
      <g>
       <use style="stroke:#000000;stroke-width:2;" x="583.975856" xlink:href="#mb8c9ddac6d" y="43.2"/>
      </g>
     </g>
     <g id="text_5">
      <!-- 400 -->
      <g transform="translate(564.888356 333.696875)scale(0.2 -0.2)">
       <defs>
        <path d="M 37.796875 64.3125 
L 12.890625 25.390625 
L 37.796875 25.390625 
z
M 35.203125 72.90625 
L 47.609375 72.90625 
L 47.609375 25.390625 
L 58.015625 25.390625 
L 58.015625 17.1875 
L 47.609375 17.1875 
L 47.609375 0 
L 37.796875 0 
L 37.796875 17.1875 
L 4.890625 17.1875 
L 4.890625 26.703125 
z
" id="DejaVuSans-52"/>
       </defs>
       <use xlink:href="#DejaVuSans-52"/>
       <use x="63.623047" xlink:href="#DejaVuSans-48"/>
       <use x="127.246094" xlink:href="#DejaVuSans-48"/>
      </g>
     </g>
    </g>
   </g>
   <g id="matplotlib.axis_2">
    <g id="ytick_1">
     <g id="line2d_11">
      <defs>
       <path d="M 0 0 
L 7 0 
" id="m039fe82ea9" style="stroke:#000000;stroke-width:2;"/>
      </defs>
      <g>
       <use style="stroke:#000000;stroke-width:2;" x="90" xlink:href="#m039fe82ea9" y="267.603471"/>
      </g>
     </g>
     <g id="line2d_12">
      <defs>
       <path d="M 0 0 
L -7 0 
" id="mee37935155" style="stroke:#000000;stroke-width:2;"/>
      </defs>
      <g>
       <use style="stroke:#000000;stroke-width:2;" x="648" xlink:href="#mee37935155" y="267.603471"/>
      </g>
     </g>
     <g id="text_6">
      <!-- 0.2 -->
      <g transform="translate(54.69375 275.201909)scale(0.2 -0.2)">
       <defs>
        <path d="M 10.6875 12.40625 
L 21 12.40625 
L 21 0 
L 10.6875 0 
z
" id="DejaVuSans-46"/>
       </defs>
       <use xlink:href="#DejaVuSans-48"/>
       <use x="63.623047" xlink:href="#DejaVuSans-46"/>
       <use x="95.410156" xlink:href="#DejaVuSans-50"/>
      </g>
     </g>
    </g>
    <g id="ytick_2">
     <g id="line2d_13">
      <g>
       <use style="stroke:#000000;stroke-width:2;" x="90" xlink:href="#m039fe82ea9" y="214.59124"/>
      </g>
     </g>
     <g id="line2d_14">
      <g>
       <use style="stroke:#000000;stroke-width:2;" x="648" xlink:href="#mee37935155" y="214.59124"/>
      </g>
     </g>
     <g id="text_7">
      <!-- 0.4 -->
      <g transform="translate(54.69375 222.189677)scale(0.2 -0.2)">
       <use xlink:href="#DejaVuSans-48"/>
       <use x="63.623047" xlink:href="#DejaVuSans-46"/>
       <use x="95.410156" xlink:href="#DejaVuSans-52"/>
      </g>
     </g>
    </g>
    <g id="ytick_3">
     <g id="line2d_15">
      <g>
       <use style="stroke:#000000;stroke-width:2;" x="90" xlink:href="#m039fe82ea9" y="161.579008"/>
      </g>
     </g>
     <g id="line2d_16">
      <g>
       <use style="stroke:#000000;stroke-width:2;" x="648" xlink:href="#mee37935155" y="161.579008"/>
      </g>
     </g>
     <g id="text_8">
      <!-- 0.6 -->
      <g transform="translate(54.69375 169.177446)scale(0.2 -0.2)">
       <defs>
        <path d="M 33.015625 40.375 
Q 26.375 40.375 22.484375 35.828125 
Q 18.609375 31.296875 18.609375 23.390625 
Q 18.609375 15.53125 22.484375 10.953125 
Q 26.375 6.390625 33.015625 6.390625 
Q 39.65625 6.390625 43.53125 10.953125 
Q 47.40625 15.53125 47.40625 23.390625 
Q 47.40625 31.296875 43.53125 35.828125 
Q 39.65625 40.375 33.015625 40.375 
z
M 52.59375 71.296875 
L 52.59375 62.3125 
Q 48.875 64.0625 45.09375 64.984375 
Q 41.3125 65.921875 37.59375 65.921875 
Q 27.828125 65.921875 22.671875 59.328125 
Q 17.53125 52.734375 16.796875 39.40625 
Q 19.671875 43.65625 24.015625 45.921875 
Q 28.375 48.1875 33.59375 48.1875 
Q 44.578125 48.1875 50.953125 41.515625 
Q 57.328125 34.859375 57.328125 23.390625 
Q 57.328125 12.15625 50.6875 5.359375 
Q 44.046875 -1.421875 33.015625 -1.421875 
Q 20.359375 -1.421875 13.671875 8.265625 
Q 6.984375 17.96875 6.984375 36.375 
Q 6.984375 53.65625 15.1875 63.9375 
Q 23.390625 74.21875 37.203125 74.21875 
Q 40.921875 74.21875 44.703125 73.484375 
Q 48.484375 72.75 52.59375 71.296875 
z
" id="DejaVuSans-54"/>
       </defs>
       <use xlink:href="#DejaVuSans-48"/>
       <use x="63.623047" xlink:href="#DejaVuSans-46"/>
       <use x="95.410156" xlink:href="#DejaVuSans-54"/>
      </g>
     </g>
    </g>
    <g id="ytick_4">
     <g id="line2d_17">
      <g>
       <use style="stroke:#000000;stroke-width:2;" x="90" xlink:href="#m039fe82ea9" y="108.566777"/>
      </g>
     </g>
     <g id="line2d_18">
      <g>
       <use style="stroke:#000000;stroke-width:2;" x="648" xlink:href="#mee37935155" y="108.566777"/>
      </g>
     </g>
     <g id="text_9">
      <!-- 0.8 -->
      <g transform="translate(54.69375 116.165214)scale(0.2 -0.2)">
       <defs>
        <path d="M 31.78125 34.625 
Q 24.75 34.625 20.71875 30.859375 
Q 16.703125 27.09375 16.703125 20.515625 
Q 16.703125 13.921875 20.71875 10.15625 
Q 24.75 6.390625 31.78125 6.390625 
Q 38.8125 6.390625 42.859375 10.171875 
Q 46.921875 13.96875 46.921875 20.515625 
Q 46.921875 27.09375 42.890625 30.859375 
Q 38.875 34.625 31.78125 34.625 
z
M 21.921875 38.8125 
Q 15.578125 40.375 12.03125 44.71875 
Q 8.5 49.078125 8.5 55.328125 
Q 8.5 64.0625 14.71875 69.140625 
Q 20.953125 74.21875 31.78125 74.21875 
Q 42.671875 74.21875 48.875 69.140625 
Q 55.078125 64.0625 55.078125 55.328125 
Q 55.078125 49.078125 51.53125 44.71875 
Q 48 40.375 41.703125 38.8125 
Q 48.828125 37.15625 52.796875 32.3125 
Q 56.78125 27.484375 56.78125 20.515625 
Q 56.78125 9.90625 50.3125 4.234375 
Q 43.84375 -1.421875 31.78125 -1.421875 
Q 19.734375 -1.421875 13.25 4.234375 
Q 6.78125 9.90625 6.78125 20.515625 
Q 6.78125 27.484375 10.78125 32.3125 
Q 14.796875 37.15625 21.921875 38.8125 
z
M 18.3125 54.390625 
Q 18.3125 48.734375 21.84375 45.5625 
Q 25.390625 42.390625 31.78125 42.390625 
Q 38.140625 42.390625 41.71875 45.5625 
Q 45.3125 48.734375 45.3125 54.390625 
Q 45.3125 60.0625 41.71875 63.234375 
Q 38.140625 66.40625 31.78125 66.40625 
Q 25.390625 66.40625 21.84375 63.234375 
Q 18.3125 60.0625 18.3125 54.390625 
z
" id="DejaVuSans-56"/>
       </defs>
       <use xlink:href="#DejaVuSans-48"/>
       <use x="63.623047" xlink:href="#DejaVuSans-46"/>
       <use x="95.410156" xlink:href="#DejaVuSans-56"/>
      </g>
     </g>
    </g>
    <g id="ytick_5">
     <g id="line2d_19">
      <g>
       <use style="stroke:#000000;stroke-width:2;" x="90" xlink:href="#m039fe82ea9" y="55.554545"/>
      </g>
     </g>
     <g id="line2d_20">
      <g>
       <use style="stroke:#000000;stroke-width:2;" x="648" xlink:href="#mee37935155" y="55.554545"/>
      </g>
     </g>
     <g id="text_10">
      <!-- 1.0 -->
      <g transform="translate(54.69375 63.152983)scale(0.2 -0.2)">
       <use xlink:href="#DejaVuSans-49"/>
       <use x="63.623047" xlink:href="#DejaVuSans-46"/>
       <use x="95.410156" xlink:href="#DejaVuSans-48"/>
      </g>
     </g>
    </g>
   </g>
   <g id="line2d_21">
    <path clip-path="url(#p0a59b56b83)" d="M 115.363636 298.152893 
L 118.878228 298.152893 
L 120.049759 293.660331 
L 121.221289 298.152893 
L 122.39282 298.152893 
L 123.56435 293.660331 
L 124.735881 293.660331 
L 125.907411 298.152893 
L 128.250472 298.152893 
L 129.422003 293.660331 
L 130.593533 298.152893 
L 131.765064 298.152893 
L 132.936595 293.660331 
L 134.108125 298.152893 
L 145.823431 298.152893 
L 146.994961 302.645455 
L 148.166492 298.152893 
L 172.768633 298.152893 
L 173.940164 293.660331 
L 176.283225 293.660331 
L 177.454755 298.152893 
L 186.827 298.152893 
L 187.99853 293.660331 
L 189.170061 298.152893 
L 193.856183 298.152893 
L 195.027714 284.675207 
L 196.199244 266.704959 
L 197.370775 253.227273 
L 199.713836 253.227273 
L 200.885366 248.734711 
L 203.228427 230.764463 
L 204.399958 226.271901 
L 205.571489 226.271901 
L 206.743019 212.794215 
L 207.91455 212.794215 
L 209.08608 217.286777 
L 210.257611 212.794215 
L 211.429141 194.823967 
L 212.600672 190.331405 
L 213.772202 176.853719 
L 214.943733 176.853719 
L 217.286794 203.809091 
L 218.458325 203.809091 
L 219.629855 199.316529 
L 220.801386 199.316529 
L 221.972916 190.331405 
L 223.144447 217.286777 
L 224.315977 194.823967 
L 225.487508 212.794215 
L 229.0021 226.271901 
L 230.17363 221.779339 
L 231.345161 226.271901 
L 232.516691 212.794215 
L 233.688222 235.257025 
L 234.859752 194.823967 
L 236.031283 194.823967 
L 237.202813 176.853719 
L 238.374344 194.823967 
L 239.545874 185.838843 
L 240.717405 199.316529 
L 241.888936 190.331405 
L 243.060466 203.809091 
L 244.231997 199.316529 
L 245.403527 199.316529 
L 246.575058 208.301653 
L 247.746588 203.809091 
L 248.918119 217.286777 
L 250.089649 221.779339 
L 252.43271 212.794215 
L 253.604241 203.809091 
L 254.775772 199.316529 
L 255.947302 199.316529 
L 257.118833 203.809091 
L 258.290363 212.794215 
L 259.461894 194.823967 
L 260.633424 208.301653 
L 261.804955 203.809091 
L 262.976485 203.809091 
L 264.148016 199.316529 
L 265.319547 217.286777 
L 266.491077 203.809091 
L 267.662608 194.823967 
L 270.005669 194.823967 
L 271.177199 217.286777 
L 272.34873 226.271901 
L 273.52026 226.271901 
L 274.691791 235.257025 
L 275.863321 226.271901 
L 277.034852 226.271901 
L 278.206383 221.779339 
L 279.377913 226.271901 
L 282.892505 212.794215 
L 284.064035 212.794215 
L 285.235566 199.316529 
L 286.407096 199.316529 
L 287.578627 203.809091 
L 288.750157 203.809091 
L 289.921688 194.823967 
L 291.093219 208.301653 
L 292.264749 203.809091 
L 293.43628 221.779339 
L 295.779341 212.794215 
L 296.950871 212.794215 
L 298.122402 199.316529 
L 299.293932 199.316529 
L 300.465463 194.823967 
L 303.980055 194.823967 
L 305.151585 203.809091 
L 306.323116 199.316529 
L 308.666177 199.316529 
L 309.837707 208.301653 
L 311.009238 208.301653 
L 312.180768 194.823967 
L 314.52383 185.838843 
L 315.69536 194.823967 
L 316.866891 194.823967 
L 320.381482 181.346281 
L 321.553013 163.376033 
L 322.724543 158.883471 
L 323.896074 158.883471 
L 325.067604 163.376033 
L 326.239135 154.390909 
L 327.410666 149.898347 
L 328.582196 176.853719 
L 329.753727 185.838843 
L 330.925257 185.838843 
L 332.096788 167.868595 
L 333.268318 163.376033 
L 334.439849 145.405785 
L 335.611379 154.390909 
L 336.78291 154.390909 
L 337.95444 163.376033 
L 339.125971 163.376033 
L 341.469032 172.361157 
L 342.640563 145.405785 
L 343.812093 136.420661 
L 344.983624 122.942975 
L 346.155154 140.913223 
L 348.498215 131.928099 
L 350.841277 104.972727 
L 352.012807 113.957851 
L 353.184338 100.480165 
L 354.355868 104.972727 
L 356.698929 131.928099 
L 359.04199 131.928099 
L 360.213521 127.435537 
L 361.385051 113.957851 
L 362.556582 113.957851 
L 363.728113 109.465289 
L 364.899643 109.465289 
L 366.071174 95.987603 
L 367.242704 109.465289 
L 368.414235 82.509917 
L 369.585765 82.509917 
L 370.757296 87.002479 
L 371.928826 78.017355 
L 373.100357 78.017355 
L 374.271887 73.524793 
L 375.443418 82.509917 
L 376.614949 78.017355 
L 378.95801 95.987603 
L 380.12954 73.524793 
L 381.301071 87.002479 
L 382.472601 91.495041 
L 383.644132 104.972727 
L 384.815662 87.002479 
L 385.987193 118.450413 
L 387.158723 104.972727 
L 388.330254 113.957851 
L 389.501785 113.957851 
L 390.673315 109.465289 
L 391.844846 82.509917 
L 393.016376 78.017355 
L 394.187907 87.002479 
L 395.359437 109.465289 
L 396.530968 100.480165 
L 397.702498 109.465289 
L 400.04556 145.405785 
L 401.21709 149.898347 
L 402.388621 172.361157 
L 403.560151 163.376033 
L 404.731682 181.346281 
L 405.903212 172.361157 
L 407.074743 176.853719 
L 408.246273 190.331405 
L 409.417804 127.435537 
L 410.589334 104.972727 
L 411.760865 109.465289 
L 412.932396 82.509917 
L 414.103926 78.017355 
L 415.275457 82.509917 
L 416.446987 78.017355 
L 417.618518 87.002479 
L 418.790048 78.017355 
L 419.961579 78.017355 
L 421.133109 87.002479 
L 422.30464 82.509917 
L 423.47617 69.032231 
L 424.647701 69.032231 
L 425.819232 78.017355 
L 426.990762 69.032231 
L 428.162293 73.524793 
L 430.505354 64.539669 
L 431.676884 64.539669 
L 432.848415 73.524793 
L 434.019945 73.524793 
L 436.363007 82.509917 
L 437.534537 78.017355 
L 439.877598 78.017355 
L 441.049129 69.032231 
L 442.220659 69.032231 
L 443.39219 73.524793 
L 444.56372 69.032231 
L 445.735251 69.032231 
L 446.906781 64.539669 
L 448.078312 69.032231 
L 449.249843 78.017355 
L 450.421373 78.017355 
L 451.592904 69.032231 
L 452.764434 64.539669 
L 453.935965 64.539669 
L 455.107495 78.017355 
L 456.279026 69.032231 
L 458.622087 69.032231 
L 459.793617 60.047107 
L 460.965148 87.002479 
L 462.136679 73.524793 
L 464.47974 82.509917 
L 466.822801 73.524793 
L 467.994331 82.509917 
L 469.165862 87.002479 
L 470.337392 87.002479 
L 471.508923 100.480165 
L 472.680453 78.017355 
L 473.851984 82.509917 
L 475.023515 82.509917 
L 476.195045 78.017355 
L 477.366576 64.539669 
L 478.538106 69.032231 
L 479.709637 64.539669 
L 482.052698 64.539669 
L 483.224228 73.524793 
L 484.395759 60.047107 
L 485.56729 73.524793 
L 486.73882 69.032231 
L 489.081881 69.032231 
L 490.253412 73.524793 
L 491.424942 82.509917 
L 492.596473 82.509917 
L 493.768003 91.495041 
L 496.111064 82.509917 
L 497.282595 82.509917 
L 498.454126 69.032231 
L 499.625656 64.539669 
L 501.968717 73.524793 
L 503.140248 73.524793 
L 504.311778 64.539669 
L 505.483309 64.539669 
L 506.654839 78.017355 
L 507.82637 69.032231 
L 508.9979 78.017355 
L 510.169431 69.032231 
L 512.512492 60.047107 
L 513.684023 69.032231 
L 514.855553 60.047107 
L 516.027084 64.539669 
L 517.198614 55.554545 
L 518.370145 55.554545 
L 519.541675 60.047107 
L 520.713206 60.047107 
L 521.884737 55.554545 
L 523.056267 73.524793 
L 524.227798 64.539669 
L 525.399328 64.539669 
L 526.570859 60.047107 
L 528.91392 69.032231 
L 530.08545 78.017355 
L 531.256981 73.524793 
L 532.428511 78.017355 
L 534.771573 60.047107 
L 535.943103 60.047107 
L 537.114634 64.539669 
L 538.286164 60.047107 
L 539.457695 60.047107 
L 540.629225 55.554545 
L 541.800756 64.539669 
L 542.972286 55.554545 
L 544.143817 55.554545 
L 545.315347 64.539669 
L 546.486878 60.047107 
L 548.829939 60.047107 
L 550.00147 69.032231 
L 551.173 69.032231 
L 552.344531 78.017355 
L 554.687592 69.032231 
L 557.030653 104.972727 
L 558.202183 91.495041 
L 561.716775 131.928099 
L 562.888306 136.420661 
L 564.059836 185.838843 
L 565.231367 181.346281 
L 567.574428 190.331405 
L 568.745958 185.838843 
L 569.917489 190.331405 
L 571.08902 176.853719 
L 572.26055 172.361157 
L 573.432081 226.271901 
L 574.603611 239.749587 
L 575.775142 230.764463 
L 576.946672 217.286777 
L 578.118203 221.779339 
L 579.289733 235.257025 
L 580.461264 221.779339 
L 581.632794 221.779339 
L 582.804325 244.242149 
L 583.975856 244.242149 
L 585.147386 230.764463 
L 586.318917 140.913223 
L 587.490447 95.987603 
L 588.661978 60.047107 
L 591.005039 60.047107 
L 592.176569 64.539669 
L 593.3481 64.539669 
L 595.691161 55.554545 
L 596.862692 60.047107 
L 598.034222 60.047107 
L 599.205753 64.539669 
L 600.377283 55.554545 
L 601.548814 69.032231 
L 602.720344 55.554545 
L 603.891875 73.524793 
L 605.063405 64.539669 
L 606.234936 78.017355 
L 607.406467 82.509917 
L 608.577997 73.524793 
L 609.749528 73.524793 
L 612.092589 91.495041 
L 613.264119 87.002479 
L 614.43565 91.495041 
L 615.60718 87.002479 
L 616.778711 104.972727 
L 617.950241 95.987603 
L 619.121772 118.450413 
L 620.293303 122.942975 
L 621.464833 104.972727 
L 622.636364 104.972727 
L 622.636364 104.972727 
" style="fill:none;stroke:#008fd5;stroke-linecap:square;stroke-width:5;"/>
   </g>
   <g id="patch_3">
    <path d="M 90 315 
L 90 43.2 
" style="fill:none;stroke:#000000;stroke-linecap:square;stroke-linejoin:miter;stroke-width:2;"/>
   </g>
   <g id="patch_4">
    <path d="M 648 315 
L 648 43.2 
" style="fill:none;stroke:#000000;stroke-linecap:square;stroke-linejoin:miter;stroke-width:2;"/>
   </g>
   <g id="patch_5">
    <path d="M 90 315 
L 648 315 
" style="fill:none;stroke:#000000;stroke-linecap:square;stroke-linejoin:miter;stroke-width:2;"/>
   </g>
   <g id="patch_6">
    <path d="M 90 43.2 
L 648 43.2 
" style="fill:none;stroke:#000000;stroke-linecap:square;stroke-linejoin:miter;stroke-width:2;"/>
   </g>
  </g>
 </g>
 <defs>
  <clipPath id="p0a59b56b83">
   <rect height="271.8" width="558" x="90" y="43.2"/>
  </clipPath>
 </defs>
</svg>
